<?xml version="1.0" encoding="utf-8"?>
<!-- Generator: Adobe Illustrator 25.3.0, SVG Export Plug-In . SVG Version: 6.00 Build 0)  -->
<svg version="1.1" id="Capa_1" xmlns="http://www.w3.org/2000/svg" xmlns:xlink="http://www.w3.org/1999/xlink" x="0px" y="0px"
	 viewBox="0 0 512 512" style="enable-background:new 0 0 512 512;" xml:space="preserve">
<style type="text/css">
	.st0{fill:#FFFFFF;}
</style>
<g>
	<g>
		<path class="st0" d="M369,235.1c17-14.7,30.5-33.7,38.4-55.7c5.3-14.6,7.9-29.9,7.9-45.5C415.4,60.1,355.3,0,281.5,0h-216
			c-11,0-20,9-20,20v472c0,11,9,20,20,20h259.3c22,0,44-4.6,62-12.8c10-4.6,14.4-16.5,9.8-26.5c-4.6-10-16.5-14.4-26.5-9.8
			c-12.8,5.9-28.9,9.2-45.2,9.2H85.5V40h196c51.8,0,93.9,42.1,93.9,93.9c0,11-1.9,21.7-5.6,31.9c-13.4,37.1-48.9,62-88.3,62
			c-1,0-1.9,0.1-2.8,0.2H165.5c-11,0-20,9-20,20s9,20,20,20h159.3c56.1,0,101.7,45.9,101.7,102.3c0,11.6-1.7,22.5-5,32.3
			c-3.5,10.5,2.1,21.8,12.6,25.3c2.1,0.7,4.3,1,6.4,1c8.4,0,16.2-5.3,19-13.6c4.7-13.9,7-29.1,7-45.1
			C466.5,307.3,425.6,253.8,369,235.1z"/>
	</g>
</g>
</svg>
